<mxfile host="app.diagrams.net" modified="2024-05-12T19:19:31.372Z" agent="Mozilla/5.0 (Macintosh; Intel Mac OS X 10_15_7) AppleWebKit/537.36 (KHTML, like Gecko) Chrome/124.0.0.0 Safari/537.36" etag="FkbJM62LucEM_LgeBnqb" version="24.3.1" type="github">
  <diagram id="C5RBs43oDa-KdzZeNtuy" name="chess">
    <mxGraphModel dx="1893" dy="695" grid="0" gridSize="10" guides="1" tooltips="1" connect="1" arrows="1" fold="1" page="0" pageScale="1" pageWidth="827" pageHeight="1169" math="0" shadow="0">
      <root>
        <mxCell id="WIyWlLk6GJQsqaUBKTNV-0" />
        <mxCell id="WIyWlLk6GJQsqaUBKTNV-1" parent="WIyWlLk6GJQsqaUBKTNV-0" />
        <mxCell id="zkfFHV4jXpPFQw0GAbJ--0" value="BoardÂ " style="swimlane;fontStyle=2;align=center;verticalAlign=top;childLayout=stackLayout;horizontal=1;startSize=26;horizontalStack=0;resizeParent=1;resizeLast=0;collapsible=1;marginBottom=0;rounded=0;shadow=0;strokeWidth=1;" parent="WIyWlLk6GJQsqaUBKTNV-1" vertex="1">
          <mxGeometry x="220" y="120" width="160" height="138" as="geometry">
            <mxRectangle x="230" y="140" width="160" height="26" as="alternateBounds" />
          </mxGeometry>
        </mxCell>
        <mxCell id="zkfFHV4jXpPFQw0GAbJ--1" value="Name" style="text;align=left;verticalAlign=top;spacingLeft=4;spacingRight=4;overflow=hidden;rotatable=0;points=[[0,0.5],[1,0.5]];portConstraint=eastwest;" parent="zkfFHV4jXpPFQw0GAbJ--0" vertex="1">
          <mxGeometry y="26" width="160" height="26" as="geometry" />
        </mxCell>
        <mxCell id="zkfFHV4jXpPFQw0GAbJ--2" value="Phone Number" style="text;align=left;verticalAlign=top;spacingLeft=4;spacingRight=4;overflow=hidden;rotatable=0;points=[[0,0.5],[1,0.5]];portConstraint=eastwest;rounded=0;shadow=0;html=0;" parent="zkfFHV4jXpPFQw0GAbJ--0" vertex="1">
          <mxGeometry y="52" width="160" height="26" as="geometry" />
        </mxCell>
        <mxCell id="zkfFHV4jXpPFQw0GAbJ--3" value="Email Address" style="text;align=left;verticalAlign=top;spacingLeft=4;spacingRight=4;overflow=hidden;rotatable=0;points=[[0,0.5],[1,0.5]];portConstraint=eastwest;rounded=0;shadow=0;html=0;" parent="zkfFHV4jXpPFQw0GAbJ--0" vertex="1">
          <mxGeometry y="78" width="160" height="26" as="geometry" />
        </mxCell>
        <mxCell id="zkfFHV4jXpPFQw0GAbJ--4" value="" style="line;html=1;strokeWidth=1;align=left;verticalAlign=middle;spacingTop=-1;spacingLeft=3;spacingRight=3;rotatable=0;labelPosition=right;points=[];portConstraint=eastwest;" parent="zkfFHV4jXpPFQw0GAbJ--0" vertex="1">
          <mxGeometry y="104" width="160" height="8" as="geometry" />
        </mxCell>
        <mxCell id="zkfFHV4jXpPFQw0GAbJ--5" value="Purchase Parking Pass" style="text;align=left;verticalAlign=top;spacingLeft=4;spacingRight=4;overflow=hidden;rotatable=0;points=[[0,0.5],[1,0.5]];portConstraint=eastwest;" parent="zkfFHV4jXpPFQw0GAbJ--0" vertex="1">
          <mxGeometry y="112" width="160" height="26" as="geometry" />
        </mxCell>
        <mxCell id="zkfFHV4jXpPFQw0GAbJ--6" value="Student" style="swimlane;fontStyle=0;align=center;verticalAlign=top;childLayout=stackLayout;horizontal=1;startSize=26;horizontalStack=0;resizeParent=1;resizeLast=0;collapsible=1;marginBottom=0;rounded=0;shadow=0;strokeWidth=1;" parent="WIyWlLk6GJQsqaUBKTNV-1" vertex="1">
          <mxGeometry x="120" y="360" width="160" height="138" as="geometry">
            <mxRectangle x="130" y="380" width="160" height="26" as="alternateBounds" />
          </mxGeometry>
        </mxCell>
        <mxCell id="zkfFHV4jXpPFQw0GAbJ--7" value="Student Number" style="text;align=left;verticalAlign=top;spacingLeft=4;spacingRight=4;overflow=hidden;rotatable=0;points=[[0,0.5],[1,0.5]];portConstraint=eastwest;" parent="zkfFHV4jXpPFQw0GAbJ--6" vertex="1">
          <mxGeometry y="26" width="160" height="26" as="geometry" />
        </mxCell>
        <mxCell id="zkfFHV4jXpPFQw0GAbJ--8" value="Average Mark" style="text;align=left;verticalAlign=top;spacingLeft=4;spacingRight=4;overflow=hidden;rotatable=0;points=[[0,0.5],[1,0.5]];portConstraint=eastwest;rounded=0;shadow=0;html=0;" parent="zkfFHV4jXpPFQw0GAbJ--6" vertex="1">
          <mxGeometry y="52" width="160" height="26" as="geometry" />
        </mxCell>
        <mxCell id="zkfFHV4jXpPFQw0GAbJ--9" value="" style="line;html=1;strokeWidth=1;align=left;verticalAlign=middle;spacingTop=-1;spacingLeft=3;spacingRight=3;rotatable=0;labelPosition=right;points=[];portConstraint=eastwest;" parent="zkfFHV4jXpPFQw0GAbJ--6" vertex="1">
          <mxGeometry y="78" width="160" height="8" as="geometry" />
        </mxCell>
        <mxCell id="zkfFHV4jXpPFQw0GAbJ--10" value="Is Eligible To Enroll" style="text;align=left;verticalAlign=top;spacingLeft=4;spacingRight=4;overflow=hidden;rotatable=0;points=[[0,0.5],[1,0.5]];portConstraint=eastwest;fontStyle=4" parent="zkfFHV4jXpPFQw0GAbJ--6" vertex="1">
          <mxGeometry y="86" width="160" height="26" as="geometry" />
        </mxCell>
        <mxCell id="zkfFHV4jXpPFQw0GAbJ--11" value="Get Seminars Taken" style="text;align=left;verticalAlign=top;spacingLeft=4;spacingRight=4;overflow=hidden;rotatable=0;points=[[0,0.5],[1,0.5]];portConstraint=eastwest;" parent="zkfFHV4jXpPFQw0GAbJ--6" vertex="1">
          <mxGeometry y="112" width="160" height="26" as="geometry" />
        </mxCell>
        <mxCell id="zkfFHV4jXpPFQw0GAbJ--12" value="" style="endArrow=block;endSize=10;endFill=0;shadow=0;strokeWidth=1;rounded=0;curved=0;edgeStyle=elbowEdgeStyle;elbow=vertical;" parent="WIyWlLk6GJQsqaUBKTNV-1" source="zkfFHV4jXpPFQw0GAbJ--6" target="zkfFHV4jXpPFQw0GAbJ--0" edge="1">
          <mxGeometry width="160" relative="1" as="geometry">
            <mxPoint x="200" y="203" as="sourcePoint" />
            <mxPoint x="200" y="203" as="targetPoint" />
          </mxGeometry>
        </mxCell>
        <mxCell id="zkfFHV4jXpPFQw0GAbJ--13" value="Professor" style="swimlane;fontStyle=0;align=center;verticalAlign=top;childLayout=stackLayout;horizontal=1;startSize=26;horizontalStack=0;resizeParent=1;resizeLast=0;collapsible=1;marginBottom=0;rounded=0;shadow=0;strokeWidth=1;" parent="WIyWlLk6GJQsqaUBKTNV-1" vertex="1">
          <mxGeometry x="330" y="360" width="160" height="70" as="geometry">
            <mxRectangle x="340" y="380" width="170" height="26" as="alternateBounds" />
          </mxGeometry>
        </mxCell>
        <mxCell id="zkfFHV4jXpPFQw0GAbJ--14" value="Salary" style="text;align=left;verticalAlign=top;spacingLeft=4;spacingRight=4;overflow=hidden;rotatable=0;points=[[0,0.5],[1,0.5]];portConstraint=eastwest;" parent="zkfFHV4jXpPFQw0GAbJ--13" vertex="1">
          <mxGeometry y="26" width="160" height="26" as="geometry" />
        </mxCell>
        <mxCell id="zkfFHV4jXpPFQw0GAbJ--15" value="" style="line;html=1;strokeWidth=1;align=left;verticalAlign=middle;spacingTop=-1;spacingLeft=3;spacingRight=3;rotatable=0;labelPosition=right;points=[];portConstraint=eastwest;" parent="zkfFHV4jXpPFQw0GAbJ--13" vertex="1">
          <mxGeometry y="52" width="160" height="8" as="geometry" />
        </mxCell>
        <mxCell id="zkfFHV4jXpPFQw0GAbJ--16" value="" style="endArrow=block;endSize=10;endFill=0;shadow=0;strokeWidth=1;rounded=0;curved=0;edgeStyle=elbowEdgeStyle;elbow=vertical;" parent="WIyWlLk6GJQsqaUBKTNV-1" source="zkfFHV4jXpPFQw0GAbJ--13" target="zkfFHV4jXpPFQw0GAbJ--0" edge="1">
          <mxGeometry width="160" relative="1" as="geometry">
            <mxPoint x="210" y="373" as="sourcePoint" />
            <mxPoint x="310" y="271" as="targetPoint" />
          </mxGeometry>
        </mxCell>
        <mxCell id="zkfFHV4jXpPFQw0GAbJ--17" value="Box" style="swimlane;fontStyle=0;align=center;verticalAlign=top;childLayout=stackLayout;horizontal=1;startSize=26;horizontalStack=0;resizeParent=1;resizeLast=0;collapsible=1;marginBottom=0;rounded=0;shadow=0;strokeWidth=1;" parent="WIyWlLk6GJQsqaUBKTNV-1" vertex="1">
          <mxGeometry x="508" y="120" width="160" height="216" as="geometry">
            <mxRectangle x="550" y="140" width="160" height="26" as="alternateBounds" />
          </mxGeometry>
        </mxCell>
        <mxCell id="zkfFHV4jXpPFQw0GAbJ--18" value="Street" style="text;align=left;verticalAlign=top;spacingLeft=4;spacingRight=4;overflow=hidden;rotatable=0;points=[[0,0.5],[1,0.5]];portConstraint=eastwest;" parent="zkfFHV4jXpPFQw0GAbJ--17" vertex="1">
          <mxGeometry y="26" width="160" height="26" as="geometry" />
        </mxCell>
        <mxCell id="zkfFHV4jXpPFQw0GAbJ--19" value="City" style="text;align=left;verticalAlign=top;spacingLeft=4;spacingRight=4;overflow=hidden;rotatable=0;points=[[0,0.5],[1,0.5]];portConstraint=eastwest;rounded=0;shadow=0;html=0;" parent="zkfFHV4jXpPFQw0GAbJ--17" vertex="1">
          <mxGeometry y="52" width="160" height="26" as="geometry" />
        </mxCell>
        <mxCell id="zkfFHV4jXpPFQw0GAbJ--20" value="State" style="text;align=left;verticalAlign=top;spacingLeft=4;spacingRight=4;overflow=hidden;rotatable=0;points=[[0,0.5],[1,0.5]];portConstraint=eastwest;rounded=0;shadow=0;html=0;" parent="zkfFHV4jXpPFQw0GAbJ--17" vertex="1">
          <mxGeometry y="78" width="160" height="26" as="geometry" />
        </mxCell>
        <mxCell id="zkfFHV4jXpPFQw0GAbJ--21" value="Postal Code" style="text;align=left;verticalAlign=top;spacingLeft=4;spacingRight=4;overflow=hidden;rotatable=0;points=[[0,0.5],[1,0.5]];portConstraint=eastwest;rounded=0;shadow=0;html=0;" parent="zkfFHV4jXpPFQw0GAbJ--17" vertex="1">
          <mxGeometry y="104" width="160" height="26" as="geometry" />
        </mxCell>
        <mxCell id="zkfFHV4jXpPFQw0GAbJ--22" value="Country" style="text;align=left;verticalAlign=top;spacingLeft=4;spacingRight=4;overflow=hidden;rotatable=0;points=[[0,0.5],[1,0.5]];portConstraint=eastwest;rounded=0;shadow=0;html=0;" parent="zkfFHV4jXpPFQw0GAbJ--17" vertex="1">
          <mxGeometry y="130" width="160" height="26" as="geometry" />
        </mxCell>
        <mxCell id="zkfFHV4jXpPFQw0GAbJ--23" value="" style="line;html=1;strokeWidth=1;align=left;verticalAlign=middle;spacingTop=-1;spacingLeft=3;spacingRight=3;rotatable=0;labelPosition=right;points=[];portConstraint=eastwest;" parent="zkfFHV4jXpPFQw0GAbJ--17" vertex="1">
          <mxGeometry y="156" width="160" height="8" as="geometry" />
        </mxCell>
        <mxCell id="zkfFHV4jXpPFQw0GAbJ--24" value="Validate" style="text;align=left;verticalAlign=top;spacingLeft=4;spacingRight=4;overflow=hidden;rotatable=0;points=[[0,0.5],[1,0.5]];portConstraint=eastwest;" parent="zkfFHV4jXpPFQw0GAbJ--17" vertex="1">
          <mxGeometry y="164" width="160" height="26" as="geometry" />
        </mxCell>
        <mxCell id="zkfFHV4jXpPFQw0GAbJ--25" value="Output As Label" style="text;align=left;verticalAlign=top;spacingLeft=4;spacingRight=4;overflow=hidden;rotatable=0;points=[[0,0.5],[1,0.5]];portConstraint=eastwest;" parent="zkfFHV4jXpPFQw0GAbJ--17" vertex="1">
          <mxGeometry y="190" width="160" height="26" as="geometry" />
        </mxCell>
        <mxCell id="zkfFHV4jXpPFQw0GAbJ--26" value="" style="endArrow=open;shadow=0;strokeWidth=1;rounded=0;curved=0;endFill=1;edgeStyle=elbowEdgeStyle;elbow=vertical;" parent="WIyWlLk6GJQsqaUBKTNV-1" source="zkfFHV4jXpPFQw0GAbJ--0" target="zkfFHV4jXpPFQw0GAbJ--17" edge="1">
          <mxGeometry x="0.5" y="41" relative="1" as="geometry">
            <mxPoint x="380" y="192" as="sourcePoint" />
            <mxPoint x="540" y="192" as="targetPoint" />
            <mxPoint x="-40" y="32" as="offset" />
          </mxGeometry>
        </mxCell>
        <mxCell id="zkfFHV4jXpPFQw0GAbJ--27" value="0..1" style="resizable=0;align=left;verticalAlign=bottom;labelBackgroundColor=none;fontSize=12;" parent="zkfFHV4jXpPFQw0GAbJ--26" connectable="0" vertex="1">
          <mxGeometry x="-1" relative="1" as="geometry">
            <mxPoint y="4" as="offset" />
          </mxGeometry>
        </mxCell>
        <mxCell id="zkfFHV4jXpPFQw0GAbJ--28" value="1" style="resizable=0;align=right;verticalAlign=bottom;labelBackgroundColor=none;fontSize=12;" parent="zkfFHV4jXpPFQw0GAbJ--26" connectable="0" vertex="1">
          <mxGeometry x="1" relative="1" as="geometry">
            <mxPoint x="-7" y="4" as="offset" />
          </mxGeometry>
        </mxCell>
        <mxCell id="zkfFHV4jXpPFQw0GAbJ--29" value="lives at" style="text;html=1;resizable=0;points=[];;align=center;verticalAlign=middle;labelBackgroundColor=none;rounded=0;shadow=0;strokeWidth=1;fontSize=12;" parent="zkfFHV4jXpPFQw0GAbJ--26" vertex="1" connectable="0">
          <mxGeometry x="0.5" y="49" relative="1" as="geometry">
            <mxPoint x="-38" y="40" as="offset" />
          </mxGeometry>
        </mxCell>
        <mxCell id="SoWzWTQzrmMKQPIlQP38-0" value="hc" style="edgeStyle=none;orthogonalLoop=1;jettySize=auto;html=1;rounded=0;" edge="1" parent="WIyWlLk6GJQsqaUBKTNV-1">
          <mxGeometry width="80" relative="1" as="geometry">
            <mxPoint x="470" y="298" as="sourcePoint" />
            <mxPoint x="550" y="298" as="targetPoint" />
            <Array as="points" />
          </mxGeometry>
        </mxCell>
        <mxCell id="SoWzWTQzrmMKQPIlQP38-1" value="&lt;div&gt;&lt;u&gt;Regression Testing Module&lt;/u&gt;&lt;/div&gt;Requirements:-&lt;div&gt;1)Multiple Module&lt;/div&gt;&lt;div&gt;2) Multiple test for each module&lt;/div&gt;&lt;div&gt;3)Run test suite for each module&lt;/div&gt;" style="text;html=1;align=center;verticalAlign=middle;whiteSpace=wrap;rounded=0;" vertex="1" parent="WIyWlLk6GJQsqaUBKTNV-1">
          <mxGeometry x="-235" y="800" width="249" height="207" as="geometry" />
        </mxCell>
        <mxCell id="SoWzWTQzrmMKQPIlQP38-2" value="Job:-&lt;div&gt;Input Artefacts:Src Code/Library&lt;/div&gt;&lt;div&gt;Run:-&lt;/div&gt;&lt;div&gt;Rules:-&lt;/div&gt;&lt;div&gt;Output Artefacts&lt;/div&gt;&lt;div&gt;Status: enum scheduled / waiting in queue/running/success/Failed&lt;/div&gt;&lt;div&gt;method&lt;/div&gt;&lt;div&gt;IsAllowedToFail():&lt;br&gt;&lt;br&gt;&lt;/div&gt;" style="rounded=0;whiteSpace=wrap;html=1;" vertex="1" parent="WIyWlLk6GJQsqaUBKTNV-1">
          <mxGeometry x="302" y="1274" width="302" height="149" as="geometry" />
        </mxCell>
        <mxCell id="SoWzWTQzrmMKQPIlQP38-36" style="edgeStyle=orthogonalEdgeStyle;rounded=0;orthogonalLoop=1;jettySize=auto;html=1;" edge="1" parent="WIyWlLk6GJQsqaUBKTNV-1" source="SoWzWTQzrmMKQPIlQP38-3" target="SoWzWTQzrmMKQPIlQP38-37">
          <mxGeometry relative="1" as="geometry">
            <mxPoint x="-158" y="1420" as="targetPoint" />
          </mxGeometry>
        </mxCell>
        <mxCell id="SoWzWTQzrmMKQPIlQP38-41" style="edgeStyle=orthogonalEdgeStyle;rounded=0;orthogonalLoop=1;jettySize=auto;html=1;" edge="1" parent="WIyWlLk6GJQsqaUBKTNV-1" source="SoWzWTQzrmMKQPIlQP38-3" target="SoWzWTQzrmMKQPIlQP38-40">
          <mxGeometry relative="1" as="geometry" />
        </mxCell>
        <mxCell id="SoWzWTQzrmMKQPIlQP38-3" value="Artefacts" style="rounded=0;whiteSpace=wrap;html=1;" vertex="1" parent="WIyWlLk6GJQsqaUBKTNV-1">
          <mxGeometry x="-164" y="1302" width="120" height="60" as="geometry" />
        </mxCell>
        <mxCell id="SoWzWTQzrmMKQPIlQP38-30" style="edgeStyle=orthogonalEdgeStyle;rounded=0;orthogonalLoop=1;jettySize=auto;html=1;entryX=0;entryY=0.5;entryDx=0;entryDy=0;" edge="1" parent="WIyWlLk6GJQsqaUBKTNV-1" source="SoWzWTQzrmMKQPIlQP38-5" target="SoWzWTQzrmMKQPIlQP38-29">
          <mxGeometry relative="1" as="geometry" />
        </mxCell>
        <mxCell id="SoWzWTQzrmMKQPIlQP38-5" value="Stage&lt;div&gt;Vector&amp;lt;jobs&amp;gt;&lt;/div&gt;&lt;div&gt;&lt;br&gt;&lt;div&gt;Run()&lt;/div&gt;&lt;div&gt;&lt;br&gt;&lt;/div&gt;&lt;div&gt;&lt;br&gt;&lt;/div&gt;&lt;/div&gt;" style="rounded=0;whiteSpace=wrap;html=1;" vertex="1" parent="WIyWlLk6GJQsqaUBKTNV-1">
          <mxGeometry x="391.5" y="1136" width="141" height="88" as="geometry" />
        </mxCell>
        <mxCell id="SoWzWTQzrmMKQPIlQP38-9" value="Static Checker&lt;div&gt;Job&lt;/div&gt;" style="rounded=0;whiteSpace=wrap;html=1;" vertex="1" parent="WIyWlLk6GJQsqaUBKTNV-1">
          <mxGeometry x="165" y="1473" width="120" height="55" as="geometry" />
        </mxCell>
        <mxCell id="SoWzWTQzrmMKQPIlQP38-10" value="Version Checking" style="rounded=0;whiteSpace=wrap;html=1;" vertex="1" parent="WIyWlLk6GJQsqaUBKTNV-1">
          <mxGeometry x="311" y="1473" width="120" height="53" as="geometry" />
        </mxCell>
        <mxCell id="SoWzWTQzrmMKQPIlQP38-14" value="" style="endArrow=open;endFill=1;endSize=12;html=1;rounded=0;exitX=0.5;exitY=0;exitDx=0;exitDy=0;entryX=0;entryY=1;entryDx=0;entryDy=0;" edge="1" parent="WIyWlLk6GJQsqaUBKTNV-1" target="SoWzWTQzrmMKQPIlQP38-2">
          <mxGeometry width="160" relative="1" as="geometry">
            <mxPoint x="220" y="1469" as="sourcePoint" />
            <mxPoint x="394" y="1376" as="targetPoint" />
          </mxGeometry>
        </mxCell>
        <mxCell id="SoWzWTQzrmMKQPIlQP38-15" value="" style="endArrow=open;endFill=1;endSize=12;html=1;rounded=0;exitX=0.5;exitY=0;exitDx=0;exitDy=0;entryX=0.25;entryY=1;entryDx=0;entryDy=0;" edge="1" parent="WIyWlLk6GJQsqaUBKTNV-1" target="SoWzWTQzrmMKQPIlQP38-2">
          <mxGeometry width="160" relative="1" as="geometry">
            <mxPoint x="366" y="1469" as="sourcePoint" />
            <mxPoint x="376" y="1366" as="targetPoint" />
          </mxGeometry>
        </mxCell>
        <mxCell id="SoWzWTQzrmMKQPIlQP38-16" value="" style="endArrow=open;endFill=1;endSize=12;html=1;rounded=0;" edge="1" parent="WIyWlLk6GJQsqaUBKTNV-1" source="SoWzWTQzrmMKQPIlQP38-19" target="SoWzWTQzrmMKQPIlQP38-2">
          <mxGeometry width="160" relative="1" as="geometry">
            <mxPoint x="628" y="1415" as="sourcePoint" />
            <mxPoint x="386" y="1376" as="targetPoint" />
          </mxGeometry>
        </mxCell>
        <mxCell id="SoWzWTQzrmMKQPIlQP38-17" value="" style="endArrow=open;endFill=1;endSize=12;html=1;rounded=0;entryX=0.908;entryY=1.017;entryDx=0;entryDy=0;entryPerimeter=0;" edge="1" parent="WIyWlLk6GJQsqaUBKTNV-1" source="SoWzWTQzrmMKQPIlQP38-22" target="SoWzWTQzrmMKQPIlQP38-2">
          <mxGeometry width="160" relative="1" as="geometry">
            <mxPoint x="777" y="1404" as="sourcePoint" />
            <mxPoint x="396" y="1386" as="targetPoint" />
          </mxGeometry>
        </mxCell>
        <mxCell id="SoWzWTQzrmMKQPIlQP38-18" value="" style="endArrow=open;endFill=1;endSize=12;html=1;rounded=0;entryX=1;entryY=0.75;entryDx=0;entryDy=0;" edge="1" parent="WIyWlLk6GJQsqaUBKTNV-1" source="SoWzWTQzrmMKQPIlQP38-23" target="SoWzWTQzrmMKQPIlQP38-2">
          <mxGeometry width="160" relative="1" as="geometry">
            <mxPoint x="727" y="1444" as="sourcePoint" />
            <mxPoint x="406" y="1396" as="targetPoint" />
          </mxGeometry>
        </mxCell>
        <mxCell id="SoWzWTQzrmMKQPIlQP38-19" value="Build check" style="html=1;whiteSpace=wrap;" vertex="1" parent="WIyWlLk6GJQsqaUBKTNV-1">
          <mxGeometry x="441" y="1469" width="110" height="50" as="geometry" />
        </mxCell>
        <mxCell id="SoWzWTQzrmMKQPIlQP38-22" value="Unit Test" style="html=1;whiteSpace=wrap;" vertex="1" parent="WIyWlLk6GJQsqaUBKTNV-1">
          <mxGeometry x="563" y="1469" width="110" height="50" as="geometry" />
        </mxCell>
        <mxCell id="SoWzWTQzrmMKQPIlQP38-23" value="Integration Test" style="html=1;whiteSpace=wrap;" vertex="1" parent="WIyWlLk6GJQsqaUBKTNV-1">
          <mxGeometry x="694" y="1469" width="110" height="47" as="geometry" />
        </mxCell>
        <mxCell id="SoWzWTQzrmMKQPIlQP38-24" value="Pipeline:-&lt;div&gt;Status:- Running/failed/&lt;br&gt;&lt;div&gt;vector&amp;lt;stages&amp;gt;&lt;/div&gt;&lt;div&gt;Run()&lt;/div&gt;&lt;div&gt;getOutput()&lt;/div&gt;&lt;/div&gt;" style="html=1;whiteSpace=wrap;" vertex="1" parent="WIyWlLk6GJQsqaUBKTNV-1">
          <mxGeometry x="366.5" y="996" width="198" height="95" as="geometry" />
        </mxCell>
        <mxCell id="SoWzWTQzrmMKQPIlQP38-26" value="Runner&lt;br&gt;Type:-AWS/GCP" style="html=1;whiteSpace=wrap;" vertex="1" parent="WIyWlLk6GJQsqaUBKTNV-1">
          <mxGeometry x="974" y="1282" width="110" height="50" as="geometry" />
        </mxCell>
        <mxCell id="SoWzWTQzrmMKQPIlQP38-33" style="edgeStyle=orthogonalEdgeStyle;rounded=0;orthogonalLoop=1;jettySize=auto;html=1;" edge="1" parent="WIyWlLk6GJQsqaUBKTNV-1" source="SoWzWTQzrmMKQPIlQP38-29" target="SoWzWTQzrmMKQPIlQP38-32">
          <mxGeometry relative="1" as="geometry" />
        </mxCell>
        <mxCell id="SoWzWTQzrmMKQPIlQP38-29" value="Queue&lt;div&gt;queue&amp;lt;Jobs&amp;gt;&lt;/div&gt;&lt;div&gt;AddJobs()&lt;/div&gt;" style="html=1;whiteSpace=wrap;" vertex="1" parent="WIyWlLk6GJQsqaUBKTNV-1">
          <mxGeometry x="688" y="1155" width="110" height="50" as="geometry" />
        </mxCell>
        <mxCell id="SoWzWTQzrmMKQPIlQP38-31" value="Add Jobs" style="text;html=1;align=center;verticalAlign=middle;resizable=0;points=[];autosize=1;strokeColor=none;fillColor=none;" vertex="1" parent="WIyWlLk6GJQsqaUBKTNV-1">
          <mxGeometry x="553" y="1151" width="68" height="26" as="geometry" />
        </mxCell>
        <mxCell id="SoWzWTQzrmMKQPIlQP38-32" value="Runner Pool&lt;div&gt;getRunner():runner:wait&lt;/div&gt;" style="html=1;whiteSpace=wrap;" vertex="1" parent="WIyWlLk6GJQsqaUBKTNV-1">
          <mxGeometry x="893" y="1161" width="145" height="52" as="geometry" />
        </mxCell>
        <mxCell id="SoWzWTQzrmMKQPIlQP38-35" value="" style="endArrow=diamondThin;endFill=0;endSize=24;html=1;rounded=0;entryX=0.75;entryY=1;entryDx=0;entryDy=0;exitX=0.25;exitY=0;exitDx=0;exitDy=0;" edge="1" parent="WIyWlLk6GJQsqaUBKTNV-1" source="SoWzWTQzrmMKQPIlQP38-26" target="SoWzWTQzrmMKQPIlQP38-32">
          <mxGeometry width="160" relative="1" as="geometry">
            <mxPoint x="1140" y="1227" as="sourcePoint" />
            <mxPoint x="1064" y="1249" as="targetPoint" />
          </mxGeometry>
        </mxCell>
        <mxCell id="SoWzWTQzrmMKQPIlQP38-37" value="Src Code" style="html=1;whiteSpace=wrap;" vertex="1" parent="WIyWlLk6GJQsqaUBKTNV-1">
          <mxGeometry x="-257" y="1425" width="110" height="50" as="geometry" />
        </mxCell>
        <mxCell id="SoWzWTQzrmMKQPIlQP38-38" value="Library" style="html=1;whiteSpace=wrap;" vertex="1" parent="WIyWlLk6GJQsqaUBKTNV-1">
          <mxGeometry x="-168" y="1489" width="110" height="50" as="geometry" />
        </mxCell>
        <mxCell id="SoWzWTQzrmMKQPIlQP38-39" style="edgeStyle=orthogonalEdgeStyle;rounded=0;orthogonalLoop=1;jettySize=auto;html=1;exitX=0.5;exitY=1;exitDx=0;exitDy=0;entryX=0.609;entryY=0.06;entryDx=0;entryDy=0;entryPerimeter=0;" edge="1" parent="WIyWlLk6GJQsqaUBKTNV-1" source="SoWzWTQzrmMKQPIlQP38-3" target="SoWzWTQzrmMKQPIlQP38-38">
          <mxGeometry relative="1" as="geometry" />
        </mxCell>
        <mxCell id="SoWzWTQzrmMKQPIlQP38-40" value="TestCase" style="html=1;whiteSpace=wrap;" vertex="1" parent="WIyWlLk6GJQsqaUBKTNV-1">
          <mxGeometry x="-48" y="1431" width="110" height="50" as="geometry" />
        </mxCell>
        <mxCell id="SoWzWTQzrmMKQPIlQP38-42" value="1" style="endArrow=open;html=1;endSize=12;startArrow=diamondThin;startSize=14;startFill=0;edgeStyle=orthogonalEdgeStyle;align=left;verticalAlign=bottom;rounded=0;entryX=1;entryY=0.5;entryDx=0;entryDy=0;" edge="1" parent="WIyWlLk6GJQsqaUBKTNV-1" source="SoWzWTQzrmMKQPIlQP38-2" target="SoWzWTQzrmMKQPIlQP38-3">
          <mxGeometry x="-1" y="3" relative="1" as="geometry">
            <mxPoint x="291" y="1329" as="sourcePoint" />
            <mxPoint x="416" y="1300" as="targetPoint" />
            <Array as="points">
              <mxPoint x="259" y="1329" />
              <mxPoint x="259" y="1332" />
              <mxPoint x="8" y="1332" />
            </Array>
          </mxGeometry>
        </mxCell>
        <mxCell id="SoWzWTQzrmMKQPIlQP38-44" value="&lt;div&gt;Pipelinemanager&lt;/div&gt;&lt;div&gt;vector&amp;lt;id,pipeline&amp;gt;pipeline_list&lt;/div&gt;deployPipeline()" style="html=1;whiteSpace=wrap;" vertex="1" parent="WIyWlLk6GJQsqaUBKTNV-1">
          <mxGeometry x="47" y="994" width="194" height="76" as="geometry" />
        </mxCell>
        <mxCell id="SoWzWTQzrmMKQPIlQP38-45" value="RegressionTestingSystem&lt;div&gt;createPipeline:- can use builder pattern here . we need to create jmobs and stages first before ending them to piepline.&lt;/div&gt;&lt;div&gt;createPipeline()&lt;/div&gt;&lt;div&gt;createBuild()&lt;/div&gt;&lt;div&gt;createJobs()&lt;/div&gt;&lt;div&gt;deployPipeline(id)&lt;/div&gt;" style="html=1;whiteSpace=wrap;" vertex="1" parent="WIyWlLk6GJQsqaUBKTNV-1">
          <mxGeometry x="80.5" y="826" width="239" height="119" as="geometry" />
        </mxCell>
        <mxCell id="SoWzWTQzrmMKQPIlQP38-47" value="" style="endArrow=diamondThin;endFill=0;endSize=24;html=1;rounded=0;" edge="1" parent="WIyWlLk6GJQsqaUBKTNV-1" source="SoWzWTQzrmMKQPIlQP38-5" target="SoWzWTQzrmMKQPIlQP38-24">
          <mxGeometry width="160" relative="1" as="geometry">
            <mxPoint x="453" y="1114" as="sourcePoint" />
            <mxPoint x="453" y="1114" as="targetPoint" />
          </mxGeometry>
        </mxCell>
        <mxCell id="SoWzWTQzrmMKQPIlQP38-48" value="" style="endArrow=diamondThin;endFill=0;endSize=24;html=1;rounded=0;entryX=0.358;entryY=0.969;entryDx=0;entryDy=0;entryPerimeter=0;exitX=0.468;exitY=0.007;exitDx=0;exitDy=0;exitPerimeter=0;" edge="1" parent="WIyWlLk6GJQsqaUBKTNV-1" source="SoWzWTQzrmMKQPIlQP38-2" target="SoWzWTQzrmMKQPIlQP38-5">
          <mxGeometry width="160" relative="1" as="geometry">
            <mxPoint x="443" y="1265" as="sourcePoint" />
            <mxPoint x="444" y="1236" as="targetPoint" />
          </mxGeometry>
        </mxCell>
      </root>
    </mxGraphModel>
  </diagram>
</mxfile>
